<?xml version="1.0" encoding="iso-8859-1"?>
<!-- Uploaded to: SVG Repo, www.svgrepo.com, Generator: SVG Repo Mixer Tools -->
<svg version="1.1" id="Layer_1" xmlns="http://www.w3.org/2000/svg" xmlns:xlink="http://www.w3.org/1999/xlink" 
	 viewBox="0 0 511.999 511.999" xml:space="preserve">
<path style="fill:#FFBA7A;" d="M182.677,448.811c18.401,0,32.996-15.752,31.315-34.076c-0.015-0.165-0.031-0.33-0.048-0.497
	l0.019-60.519c0.006-17.064-3.012-34.03-9.247-49.914c-0.038-0.096-0.075-0.193-0.113-0.289l-62.524-139.497
	c-5.454-15.035-22.063-22.801-37.097-17.347c-2.679,0.972-5.126,2.301-7.311,3.909l0.627-111.3
	c0.069-15.993-12.837-29.015-28.83-29.085c-15.992-0.07-29.015,12.837-29.085,28.83l0.779,89.244
	c0.186,28.822,6.186,57.31,17.642,83.758l60.141,138.858c3.942,8.113,6.839,16.8,8.06,25.738v40.54
	c0,23.435,11.214,32.315,25.654,31.81L182.677,448.811z"/>
<rect x="77.422" y="392.556" style="fill:#94D1EA;" width="155.67" height="41.878"/>
<rect x="77.422" y="434.434" style="fill:#EAE8E8;" width="155.67" height="67.366"/>
<path style="fill:#FFBA7A;" d="M329.322,448.811c-18.401,0-32.996-15.752-31.315-34.076c0.015-0.165,0.031-0.33,0.048-0.497
	l-0.019-60.519c-0.006-17.064,3.012-34.03,9.247-49.914c0.038-0.096,0.075-0.193,0.113-0.289l62.524-139.497
	c5.453-15.035,22.063-22.801,37.097-17.347c2.679,0.972,5.126,2.301,7.311,3.909l-0.628-111.3
	c-0.069-15.993,12.837-29.015,28.83-29.085c15.992-0.07,29.015,12.837,29.085,28.83l-0.779,89.244
	c-0.186,28.822-6.186,57.31-17.642,83.758l-60.141,138.858c-3.942,8.113-6.839,16.8-8.06,25.738v40.54
	c0,23.435-11.214,32.315-25.654,31.81L329.322,448.811z"/>
<rect x="278.906" y="392.556" style="fill:#94D1EA;" width="155.67" height="41.878"/>
<rect x="278.906" y="434.434" style="fill:#EAE8E8;" width="155.67" height="67.366"/>
<path style="fill:#ADDE52;" d="M255.999,216.659l23.185-23.185c34.632-34.632,34.632-90.782,0-125.413l-23.185-23.185L232.814,68.06
	c-34.632,34.632-34.632,90.782,0,125.413L255.999,216.659z"/>
<g>
	<path style="fill:#5E282D;" d="M315.357,130.767c0-26.412-10.286-51.243-28.962-69.92l-23.184-23.184
		c-3.983-3.983-10.441-3.983-14.425,0l-23.185,23.184c-18.676,18.677-28.962,43.508-28.962,69.92s10.286,51.243,28.962,69.919
		l23.184,23.185c1.912,1.912,4.507,2.987,7.212,2.987c2.705,0,5.299-1.075,7.212-2.987l23.184-23.184
		C305.071,182.01,315.357,157.179,315.357,130.767z M266.198,192.036v-50.52c0-5.633-4.566-10.199-10.199-10.199
		s-10.199,4.566-10.199,10.199v50.52l-5.774-5.774c-14.824-14.824-22.987-34.531-22.987-55.495s8.163-40.671,22.988-55.495
		l15.972-15.973l15.972,15.973c14.824,14.824,22.988,34.531,22.988,55.495s-8.163,40.671-22.988,55.495L266.198,192.036z"/>
	<path style="fill:#5E282D;" d="M255.999,88.826c-5.633,0-10.199,4.566-10.199,10.199v5.83c0,5.633,4.566,10.199,10.199,10.199
		c5.633,0,10.199-4.566,10.199-10.199v-5.83C266.198,93.392,261.632,88.826,255.999,88.826z"/>
	<path style="fill:#5E282D;" d="M243.295,392.555c0-5.633-4.566-10.199-10.199-10.199h-8.948l0.014-28.633
		c0.007-18.753-3.341-36.802-9.955-53.655l-0.113-0.289c-0.058-0.146-0.118-0.291-0.183-0.435l-62.382-139.18
		c-6.71-17.928-25.291-28.103-43.571-24.819l0.542-96.017C108.592,17.736,91.104,0.094,69.515,0c-0.06,0-0.118,0-0.178,0
		c-10.392-0.001-20.175,4.026-27.56,11.347c-7.428,7.363-11.544,17.179-11.59,27.638c0,0.045,0,0.089,0,0.134l0.778,89.222
		c0.196,30.361,6.414,59.883,18.481,87.746l60.141,138.858c0.059,0.136,0.12,0.27,0.186,0.404
		c3.612,7.434,5.977,14.832,7.034,22.002v5.008H77.422c-5.633,0-10.199,4.566-10.199,10.199V501.8
		c0,5.633,4.566,10.199,10.199,10.199h155.674c5.633,0,10.199-4.566,10.199-10.199V392.555z M137.11,375.247
		c-1.29-9.448-4.282-19.072-8.892-28.61L68.163,207.978c-10.97-25.331-16.623-52.17-16.801-79.794l-0.778-89.171
		c0.038-4.988,2.008-9.667,5.552-13.18c3.538-3.506,8.224-5.435,13.203-5.435c0.028,0,0.057,0,0.085,0
		c10.342,0.045,18.72,8.497,18.676,18.828l-0.603,106.969c-9.752,9.913-13.866,24.675-9.578,38.815
		c0.122,0.402,0.268,0.796,0.439,1.179l37.124,83.614c1.689,3.803,5.419,6.062,9.327,6.062c1.383,0,2.787-0.283,4.134-0.88
		c5.148-2.286,7.469-8.312,5.183-13.461l-36.842-82.977c-2.49-9.183,2.338-18.778,11.193-22.293
		c9.718-3.514,20.489,1.525,24.015,11.243c0.085,0.235,0.178,0.466,0.28,0.694l62.426,139.279l0.024,0.062
		c5.674,14.455,8.547,29.994,8.542,46.183l-0.014,28.642h-66.545v-5.729C137.205,376.166,137.173,375.704,137.11,375.247z
		 M87.621,402.754h135.275v21.48H87.621V402.754z M222.896,491.601H87.621v-46.969h135.275V491.601z"/>
	<path style="fill:#5E282D;" d="M444.776,392.555c0-5.633-4.566-10.199-10.199-10.199h-39.384v-5.009
		c1.059-7.169,3.423-14.568,7.034-22.001c0.064-0.133,0.126-0.267,0.186-0.403l60.141-138.858
		c12.068-27.863,18.285-57.385,18.481-87.722l0.779-89.244c0-0.045,0-0.089,0-0.134c-0.046-10.459-4.162-20.274-11.59-27.638
		c-7.429-7.364-17.316-11.413-27.738-11.347c-21.59,0.094-39.078,17.736-38.985,39.341l0.542,96.004
		c-18.284-3.285-36.861,6.891-43.571,24.819l-62.382,139.18c-0.064,0.143-0.125,0.288-0.183,0.434l-0.117,0.299
		c-6.61,16.843-9.958,34.89-9.951,53.646l0.015,28.632h-8.949c-5.633,0-10.199,4.566-10.199,10.199V501.8
		c0,5.633,4.566,10.199,10.199,10.199h155.673c5.633,0,10.199-4.566,10.199-10.199V392.555z M424.378,491.601H289.102v-46.969
		h135.276V491.601z M424.378,424.234H289.102v-21.48h135.276V424.234z M460.636,128.207c-0.177,27.601-5.83,54.44-16.801,79.771
		l-60.055,138.66c-4.61,9.537-7.601,19.161-8.892,28.608c-0.062,0.458-0.094,0.919-0.094,1.381v5.729H308.25l-0.014-28.641
		c-0.006-16.19,2.868-31.728,8.538-46.173l62.455-139.352c0.102-0.227,0.196-0.459,0.28-0.694
		c3.524-9.718,14.293-14.757,24.013-11.244c8.856,3.516,13.685,13.11,11.195,22.294l-36.842,82.977
		c-2.286,5.149,0.035,11.175,5.183,13.461c1.345,0.598,2.751,0.88,4.134,0.88c3.909,0,7.639-2.26,9.327-6.062l37.124-83.614
		c0.17-0.383,0.317-0.777,0.439-1.179c4.288-14.139,0.174-28.903-9.578-38.815l-0.605-106.955
		c-0.045-10.344,8.333-18.796,18.677-18.841c0.029,0,0.057,0,0.085,0c4.978,0,9.665,1.929,13.203,5.436
		c3.544,3.514,5.515,8.192,5.551,13.18L460.636,128.207z"/>
	<path style="fill:#5E282D;" d="M379.288,283.476c-5.15-2.285-11.175,0.035-13.461,5.182l-0.883,1.99
		c-2.286,5.149,0.035,11.175,5.182,13.461c1.345,0.597,2.751,0.88,4.134,0.88c3.909,0,7.638-2.26,9.327-6.062l0.883-1.99
		C386.756,291.789,384.436,285.762,379.288,283.476z"/>
</g>
</svg>